<?xml version="1.0" encoding="UTF-8"?>
<svg width="40" height="40" viewBox="0 0 40 40" fill="none" xmlns="http://www.w3.org/2000/svg">
  <circle cx="20" cy="20" r="19" fill="url(#paint0_linear)" stroke="white" stroke-width="2"/>
  <path d="M20 10C17.7909 10 16 11.7909 16 14C16 14.7397 16.1997 15.4346 16.5453 16.0323C14.4972 16.2676 13 17.9235 13 19.9999C13 22.2091 14.7909 24 17 24H23C25.2091 24 27 22.2091 27 20C27 18.1332 25.7111 16.5807 24 16.1293V14C24 11.7909 22.2091 10 20 10Z" fill="white"/>
  <path d="M15 28C15 26.8954 15.8954 26 17 26H23C24.1046 26 25 26.8954 25 28C25 29.1046 24.1046 30 23 30H17C15.8954 30 15 29.1046 15 28Z" fill="white"/>
  <defs>
    <linearGradient id="paint0_linear" x1="0" y1="0" x2="40" y2="40" gradientUnits="userSpaceOnUse">
      <stop stop-color="#4b6cb7"/>
      <stop offset="1" stop-color="#182848"/>
    </linearGradient>
  </defs>
</svg>
